<svg width="23" height="23" viewBox="0 0 23 23" fill="none" xmlns="http://www.w3.org/2000/svg">
<g clip-path="url(#clip0_81_1649)">
<path d="M21.7181 6.22541C20.8588 6.60994 20.033 7.11917 19.2568 7.7258C19.8296 8.90138 20.1266 10.1922 20.125 11.5C20.125 16.2635 16.2635 20.125 11.5 20.125C6.73648 20.125 2.875 16.2635 2.875 11.5C2.875 6.73644 6.73648 2.87495 11.5 2.87495C12.8735 2.87495 14.1712 3.19731 15.3237 3.76872C16.1372 3.09405 17.0054 2.48809 17.9192 1.95711C16.023 0.678066 13.7872 -0.00362172 11.5 -4.70481e-05C5.14877 -4.70481e-05 0 5.14872 0 11.5C0 17.8512 5.14877 23 11.5 23C17.8512 23 23 17.8512 23 11.5C23.0017 9.66444 22.562 7.85542 21.7181 6.22541Z" fill="#0AC5AB"/>
<path d="M10.6017 12.8372C9.56564 11.5819 8.30855 10.5567 6.75964 9.76135C6.56271 9.65694 6.34357 9.60136 6.12068 9.59928C4.88766 9.59928 4.0726 11.4076 5.39941 12.089C7.53589 13.1858 8.8875 14.6808 9.96814 16.8116C10.1902 17.25 10.665 17.4628 11.1401 17.4628C11.7338 17.4628 12.3285 17.1303 12.4317 16.4899C13.2449 11.4342 17.0043 6.37712 21.912 4.59354C23.3678 4.06418 22.9506 1.90649 21.6629 1.90649C21.5177 1.90649 21.3614 1.93381 21.1954 1.99418C16.3934 3.73895 12.3648 7.97921 10.6017 12.8372Z" fill="#0AC5AB"/>
</g>
<defs>
<clipPath id="clip0_81_1649">
<rect width="23" height="23" fill="white"/>
</clipPath>
</defs>
</svg>
