<svg width="75" height="76" viewBox="0 0 75 76" fill="none" xmlns="http://www.w3.org/2000/svg">
<path d="M53.9062 12.2188H21.0938C17.9857 12.2188 15.005 13.4534 12.8073 15.6511C10.6097 17.8488 9.375 20.8295 9.375 23.9375V52.0625C9.375 55.1705 10.6097 58.1512 12.8073 60.3489C15.005 62.5466 17.9857 63.7812 21.0938 63.7812H53.9062C57.0143 63.7812 59.995 62.5466 62.1927 60.3489C64.3904 58.1512 65.625 55.1705 65.625 52.0625V23.9375C65.625 20.8295 64.3904 17.8488 62.1927 15.6511C59.995 13.4534 57.0143 12.2188 53.9062 12.2188ZM49.2188 45.0312C47.8281 45.0312 46.4687 44.6189 45.3124 43.8463C44.1561 43.0737 43.2549 41.9755 42.7227 40.6907C42.1905 39.406 42.0513 37.9922 42.3226 36.6283C42.5939 35.2643 43.2636 34.0115 44.2469 33.0282C45.2302 32.0448 46.4831 31.3752 47.847 31.1039C49.2109 30.8326 50.6247 30.9718 51.9095 31.504C53.1943 32.0361 54.2924 32.9374 55.065 34.0936C55.8376 35.2499 56.25 36.6094 56.25 38C56.25 39.8648 55.5092 41.6532 54.1906 42.9718C52.872 44.2905 51.0836 45.0312 49.2188 45.0312Z" fill="#57CC99"/>
<path d="M49.2188 40.3438C50.5132 40.3438 51.5625 39.2944 51.5625 38C51.5625 36.7056 50.5132 35.6562 49.2188 35.6562C47.9243 35.6562 46.875 36.7056 46.875 38C46.875 39.2944 47.9243 40.3438 49.2188 40.3438Z" fill="#2666CF"/>
</svg>
